<svg width="16" height="16" viewBox="0 0 16 16" fill="none" xmlns="http://www.w3.org/2000/svg">
<circle cx="8" cy="8" r="8" fill="#D9D9D9"/>
<path d="M8.93988 7.9995L11.8042 5.14181C11.9297 5.01637 12.0001 4.84625 12.0001 4.66886C12.0001 4.49146 11.9297 4.32134 11.8042 4.1959C11.6788 4.07047 11.5087 4 11.3313 4C11.1539 4 10.9838 4.07047 10.8583 4.1959L8.00064 7.06026L5.14294 4.1959C5.01751 4.07047 4.84738 4 4.66999 4C4.4926 4 4.32247 4.07047 4.19704 4.1959C4.07161 4.32134 4.00114 4.49146 4.00114 4.66886C4.00114 4.84625 4.07161 5.01637 4.19704 5.14181L7.0614 7.9995L4.19704 10.8572C4.1346 10.9191 4.08505 10.9928 4.05123 11.074C4.01741 11.1551 4 11.2422 4 11.3302C4 11.4181 4.01741 11.5052 4.05123 11.5863C4.08505 11.6675 4.1346 11.7412 4.19704 11.8031C4.25897 11.8655 4.33264 11.9151 4.41381 11.9489C4.49499 11.9827 4.58205 12.0001 4.66999 12.0001C4.75793 12.0001 4.845 11.9827 4.92617 11.9489C5.00734 11.9151 5.08102 11.8655 5.14294 11.8031L8.00064 8.93875L10.8583 11.8031C10.9203 11.8655 10.9939 11.9151 11.0751 11.9489C11.1563 11.9827 11.2433 12.0001 11.3313 12.0001C11.4192 12.0001 11.5063 11.9827 11.5875 11.9489C11.6686 11.9151 11.7423 11.8655 11.8042 11.8031C11.8667 11.7412 11.9162 11.6675 11.95 11.5863C11.9839 11.5052 12.0013 11.4181 12.0013 11.3302C12.0013 11.2422 11.9839 11.1551 11.95 11.074C11.9162 10.9928 11.8667 10.9191 11.8042 10.8572L8.93988 7.9995Z" fill="white"/>
</svg>
